<?xml version="1.0" encoding="utf-8"?>
<!-- Generator: Adobe Illustrator 26.5.0, SVG Export Plug-In . SVG Version: 6.00 Build 0)  -->
<svg
  version="1.1"
  id="Layer_1"
  xmlns="http://www.w3.org/2000/svg"
  xmlns:xlink="http://www.w3.org/1999/xlink"
  x="0px"
  y="0px"
  viewBox="0 0 841.89 595.28"
  style="enable-background: new 0 0 841.89 595.28"
  xml:space="preserve"
>
  <style type="text/css">
    .st0 {
      fill: #3e256b;
    }
    .st1 {
      fill: #f05e22;
    }
    .st2 {
      fill: #ffffff;
    }
  </style>
  <circle class="st0" cx="298.02" cy="289.5" r="7.38" />
  <circle class="st0" cx="327.26" cy="289.5" r="7.38" />
  <circle class="st0" cx="356.5" cy="289.5" r="7.38" />
  <path
    class="st1"
    d="M449.58,275.25v101.46c-4.74-11.08-11.6-21.26-20.38-30.05c-12.59-12.59-28.08-21.24-44.95-25.34V275.9
	c0-17.89,14.11-32.95,32-33.31c9.29-0.18,17.71,3.5,23.76,9.55C445.93,258.06,449.58,266.22,449.58,275.25z"
  />
  <g>
    <g>
      <path
        class="st0"
        d="M449.58,414.44v4.94c0,4.24-3.44,7.69-7.69,7.69h-49.95c-4.25,0-7.69-3.45-7.69-7.69v-20.08
			c0-4.24-3.44-7.67-7.67-7.67h-98.61c-4.25,0-7.69,3.44-7.69,7.69v20.07c0,4.24-3.44,7.69-7.69,7.69h-49.97
			c-4.23,0-7.69-3.46-7.69-7.69V250.26c0-4.25,3.45-7.69,7.69-7.69h49.97c4.24,0,7.69,3.44,7.69,7.69v68.34
			c0,4.24,3.44,7.69,7.69,7.69h69.68c2.96,0,5.81,1.11,8,3.11l21.87,20.01c2.58,2.36,6.73,0.53,6.73-2.96v-17.18
			C421.87,339.32,449.58,373.64,449.58,414.44z"
      />
    </g>
  </g>
  <path
    class="st1"
    d="M634.06,378.61c3,3,3,7.87,0,10.87l-35.33,35.33c-3,3-7.87,3-10.87,0l-31.25-31.25
	c28.47-28.47,28.47-74.79,0.01-103.26l-0.02-0.01l-0.1-0.1l31.36-31.14c3-3,7.87-3,10.87,0l35.33,35.33c3,3,3,7.87,0,10.87
	l-36.47,36.48L634.06,378.61z"
  />
  <g>
    <g>
      <path
        class="st0"
        d="M551.2,388.09l-36.71,36.71c-1.5,1.5-3.47,2.25-5.43,2.25c-1.97,0-3.94-0.75-5.43-2.25l-35.33-35.33
			c-3-3-3-7.87,0-10.87l31.25-31.25c3-3,3-7.87,0-10.87l-31.25-31.26c-3-3-3-7.87,0-10.87l35.33-35.33c1.5-1.5,3.47-2.25,5.43-2.25
			c1.97,0,3.94,0.75,5.43,2.25l36.56,36.56l0.13,0.13C576.7,321.23,576.71,362.58,551.2,388.09z"
      />
    </g>
  </g>
  <path class="st2" d="M444.4,206.78" />
  <circle class="st1" cx="416.92" cy="200.99" r="32.67" />
</svg>
